<svg version="1.1" xmlns="http://www.w3.org/2000/svg" style="display: block;" viewBox="0 0 2048 554" width="1512" height="409">
<defs>
	<linearGradient id="Gradient1" gradientUnits="userSpaceOnUse" x1="1625.81" y1="457.056" x2="1566.06" y2="4.58339">
		<stop class="stop0" offset="0" stop-opacity="1" stop-color="rgb(29,0,0)"/>
		<stop class="stop1" offset="1" stop-opacity="1" stop-color="rgb(51,4,2)"/>
	</linearGradient>
	<linearGradient id="Gradient2" gradientUnits="userSpaceOnUse" x1="1942.87" y1="293.541" x2="1888.77" y2="165.977">
		<stop class="stop0" offset="0" stop-opacity="1" stop-color="rgb(251,239,188)"/>
		<stop class="stop1" offset="1" stop-opacity="1" stop-color="rgb(255,255,255)"/>
	</linearGradient>
	<linearGradient id="Gradient3" gradientUnits="userSpaceOnUse" x1="1554.69" y1="340.867" x2="1533.81" y2="166.098">
		<stop class="stop0" offset="0" stop-opacity="1" stop-color="rgb(250,243,204)"/>
		<stop class="stop1" offset="1" stop-opacity="1" stop-color="rgb(255,255,255)"/>
	</linearGradient>
	<linearGradient id="Gradient4" gradientUnits="userSpaceOnUse" x1="1348.3" y1="333.98" x2="1272.46" y2="79.1487">
		<stop class="stop0" offset="0" stop-opacity="1" stop-color="rgb(254,245,211)"/>
		<stop class="stop1" offset="1" stop-opacity="1" stop-color="rgb(255,255,255)"/>
	</linearGradient>
	<linearGradient id="Gradient5" gradientUnits="userSpaceOnUse" x1="1553.5" y1="369.365" x2="1562.7" y2="180.18">
		<stop class="stop0" offset="0" stop-opacity="1" stop-color="rgb(255,209,3)"/>
		<stop class="stop1" offset="1" stop-opacity="1" stop-color="rgb(255,252,7)"/>
	</linearGradient>
	<linearGradient id="Gradient6" gradientUnits="userSpaceOnUse" x1="1522.53" y1="253.83" x2="1581.47" y2="278.17">
		<stop class="stop0" offset="0" stop-opacity="1" stop-color="rgb(22,0,1)"/>
		<stop class="stop1" offset="1" stop-opacity="1" stop-color="rgb(41,1,0)"/>
	</linearGradient>
	<linearGradient id="Gradient7" gradientUnits="userSpaceOnUse" x1="1337.67" y1="373.782" x2="1346.85" y2="97.1573">
		<stop class="stop0" offset="0" stop-opacity="1" stop-color="rgb(255,214,3)"/>
		<stop class="stop1" offset="1" stop-opacity="1" stop-color="rgb(255,255,6)"/>
	</linearGradient>
	<linearGradient id="Gradient8" gradientUnits="userSpaceOnUse" x1="213.325" y1="311.503" x2="102.924" y2="118.782">
		<stop class="stop0" offset="0" stop-opacity="1" stop-color="rgb(255,254,233)"/>
		<stop class="stop1" offset="1" stop-opacity="1" stop-color="rgb(255,255,255)"/>
	</linearGradient>
	<linearGradient id="Gradient9" gradientUnits="userSpaceOnUse" x1="867.749" y1="371.441" x2="841.556" y2="118.905">
		<stop class="stop0" offset="0" stop-opacity="1" stop-color="rgb(255,223,7)"/>
		<stop class="stop1" offset="1" stop-opacity="1" stop-color="rgb(255,253,6)"/>
	</linearGradient>
	<linearGradient id="Gradient10" gradientUnits="userSpaceOnUse" x1="1086.71" y1="270.582" x2="1043.42" y2="177.654">
		<stop class="stop0" offset="0" stop-opacity="1" stop-color="rgb(253,252,231)"/>
		<stop class="stop1" offset="1" stop-opacity="1" stop-color="rgb(255,255,255)"/>
	</linearGradient>
	<linearGradient id="Gradient11" gradientUnits="userSpaceOnUse" x1="206.257" y1="270.045" x2="218.67" y2="199.707">
		<stop class="stop0" offset="0" stop-opacity="1" stop-color="rgb(255,232,156)"/>
		<stop class="stop1" offset="1" stop-opacity="1" stop-color="rgb(255,255,255)"/>
	</linearGradient>
	<linearGradient id="Gradient12" gradientUnits="userSpaceOnUse" x1="392.409" y1="375.822" x2="417.96" y2="93.1545">
		<stop class="stop0" offset="0" stop-opacity="1" stop-color="rgb(255,217,4)"/>
		<stop class="stop1" offset="1" stop-opacity="1" stop-color="rgb(254,255,3)"/>
	</linearGradient>
</defs>
<path transform="translate(0,0)" fill="url(#Gradient1)" d="M 1192.64 149.001 L 1192.69 148.762 C 1193.78 143.926 1193.17 138.453 1193.03 133.519 C 1192.29 108.074 1185.13 73.268 1210.51 57.0348 C 1230.36 44.3334 1287.27 39.6721 1310.79 40.3281 A 239.251 239.251 0 0 1 1357.48 46.3329 C 1399.09 55.7283 1438.59 78.9449 1461.81 115.781 C 1465.48 121.604 1476.67 138.818 1477.12 145.33 L 1477.42 145.215 C 1484.76 142.368 1490.68 136.842 1497.89 133.71 C 1530.69 119.449 1566.94 116.904 1600.21 131.372 C 1612.77 136.833 1623.97 143.905 1634.82 152.238 C 1639.9 156.14 1651.65 169.873 1656.01 170.919 C 1657.96 169.972 1658.49 169.965 1659.48 167.97 C 1663.69 165.053 1667.23 159.917 1670.94 156.258 C 1691.83 135.659 1721.58 119.761 1751.53 119.941 A 131.152 131.152 0 0 1 1813.12 128.976 C 1819.65 131.663 1837.49 143.415 1843.83 142.017 C 1848.52 140.523 1853.17 137.349 1857.6 135.153 C 1870.81 128.604 1884.4 123.212 1899.19 121.825 C 1906.23 120.438 1929.17 118.004 1935.02 121.862 C 1941.72 122.202 1953.55 122.234 1958.85 126.331 C 1963.12 127.398 1971.95 129.1 1974.63 132.79 C 1986.64 135.644 2003.81 148.013 2010.18 158.407 C 2017.78 170.834 2016.83 187.591 2013.45 201.297 C 2010.36 213.794 1997.13 234.955 1998.58 246.527 C 1998.97 249.655 2000.73 252.473 2002.33 255.121 C 2005.46 260.3 2009.52 265.417 2011.84 271 C 2019.81 290.169 2019.07 319.342 2014.21 339.197 C 2011.16 351.631 2002.95 372.572 1992.2 380 L 1991.19 381.787 C 1975.64 402.373 1942.31 417.35 1917.26 420.808 C 1912.81 421.422 1908.26 421.869 1903.76 422.032 C 1892.54 421.731 1881.37 420.637 1870.45 417.965 C 1857.06 414.689 1840.06 404.03 1826.44 406.008 C 1816.58 407.439 1806.99 413.431 1797.66 416.782 C 1785.17 421.265 1772.97 422.074 1759.8 422.212 C 1729.15 422.535 1704.54 416.945 1678.08 400.731 C 1668.27 394.718 1660.04 385.21 1649.64 380.383 L 1649.35 380.249 C 1624.09 403.708 1593.06 418.724 1558.37 420.481 C 1527.1 422.065 1488.87 409.515 1464.67 389.593 C 1455.62 382.136 1448.48 372.815 1439.82 365.008 C 1437.34 374.005 1412.09 391.627 1403.6 396.973 C 1364.27 421.765 1324.56 422.25 1279.82 422.094 C 1260.61 422.026 1241.23 422.169 1222.38 417.875 C 1212.47 415.62 1201.05 410.54 1195.68 401.41 C 1180.75 376.02 1202.07 272.792 1193.3 259.208 C 1193.26 259.138 1193.21 259.07 1193.16 259.001 L 1191.53 257.004 C 1194.43 251.297 1192.84 240.884 1192.39 234.539 L 1193.56 234.992 C 1195.44 230.292 1195.49 226.829 1193.54 222.16 C 1193.61 222.008 1193.69 221.857 1193.76 221.704 C 1196.72 215.303 1195.81 157.477 1192.64 149.001 z M 1191.53 257.004 L 1193.16 259.001 C 1193.72 258.233 1194.16 257.465 1194.49 256.568 C 1196.17 251.924 1195.77 239.49 1193.56 234.992 L 1192.39 234.539 C 1192.84 240.884 1194.43 251.297 1191.53 257.004 z"/>
<path transform="translate(0,0)" fill="rgb(0,0,0)" d="M 1899.79 227.799 C 1899.94 225.063 1900.14 222.378 1901.43 219.901 C 1903.06 216.779 1906.01 215.81 1909.14 214.848 C 1910.6 218.248 1908.42 226.633 1907.08 230.13 C 1906.61 231.378 1906.23 231.362 1905.07 231.953 C 1903.86 230.021 1901.69 228.958 1899.79 227.799 z"/>
<path transform="translate(0,0)" fill="rgb(43,10,5)" d="M 1935.02 121.862 C 1941.72 122.202 1953.55 122.234 1958.85 126.331 C 1963.12 127.398 1971.95 129.1 1974.63 132.79 C 1967.75 134.969 1955.57 129.112 1948.44 127.166 A 1267.89 1267.89 0 0 0 1925.84 124.11 C 1929.57 123.694 1933.14 124.344 1936.85 123.331 L 1935.02 121.862 z"/>
<path transform="translate(0,0)" fill="rgb(0,0,0)" d="M 1815.66 333.889 C 1816.66 332.699 1817.59 331.576 1818.35 330.213 C 1820.11 331.744 1823.27 335.129 1825.52 335.688 C 1828.04 336.315 1828.68 334.118 1830.1 337.107 C 1829.67 339.217 1829.47 340.968 1829.7 343.115 C 1831.02 344.22 1832.32 345.432 1833.77 346.345 L 1833.7 347 L 1832.73 347.465 C 1828.88 345.539 1823.69 349.651 1816.47 346.92 C 1816.77 346.756 1817.05 346.597 1817.34 346.405 C 1819.82 344.717 1820.02 344.601 1820.54 341.729 C 1819.53 338.6 1817.69 336.402 1815.66 333.889 z"/>
<path transform="translate(0,0)" fill="rgb(38,1,0)" d="M 1899.19 121.825 C 1906.23 120.438 1929.17 118.004 1935.02 121.862 L 1936.85 123.331 C 1933.14 124.344 1929.57 123.694 1925.84 124.11 C 1917.86 123.986 1909.58 125.542 1901.74 124.975 C 1890.61 126.958 1879.94 129.635 1869.47 133.974 C 1863.11 136.609 1849.2 145.379 1843.57 146.093 L 1842.79 145.026 L 1843.83 142.017 C 1848.52 140.523 1853.17 137.349 1857.6 135.153 C 1870.81 128.604 1884.4 123.212 1899.19 121.825 z"/>
<path transform="translate(0,0)" fill="rgb(43,10,5)" d="M 1659.48 167.97 C 1663.69 165.053 1667.23 159.917 1670.94 156.258 C 1691.83 135.659 1721.58 119.761 1751.53 119.941 C 1748.59 122.56 1745.56 121.585 1742.37 123.345 L 1747.36 122.672 C 1721.66 129.492 1695.5 136.252 1676.08 155.911 C 1670.31 161.749 1663.26 171.974 1656.31 175.688 C 1656.52 172.432 1659.54 171.302 1659.48 167.97 z"/>
<path transform="translate(0,0)" fill="rgb(254,253,248)" d="M 1854.8 297.615 C 1858.81 299.617 1862.79 303.853 1866.5 306.598 C 1877.11 314.437 1890.94 321.935 1904.54 319.796 C 1909.77 318.973 1915.77 316.343 1918.95 311.981 C 1919.67 308.777 1919.6 308.122 1918.6 304.979 C 1919.71 303.393 1920.86 302.477 1922.69 301.854 C 1926.16 300.671 1929.73 300.226 1933.13 301.872 L 1933.85 303.948 C 1935.56 307.276 1935.24 311.144 1934.03 314.62 C 1932.4 319.292 1928.33 322.328 1924.01 324.345 C 1912.9 329.526 1897.11 329.549 1885.72 325.318 C 1877.57 322.293 1870.9 317.063 1863.18 313.395 C 1860.91 323.003 1851.67 337.945 1843.13 343.197 C 1840.42 344.865 1836.99 346.251 1833.77 346.345 C 1832.32 345.432 1831.02 344.22 1829.7 343.115 C 1829.47 340.968 1829.67 339.217 1830.1 337.107 C 1830.34 337.002 1830.46 336.956 1830.71 336.815 C 1832.75 335.644 1853.89 301.206 1854.8 297.615 z"/>
<path transform="translate(0,0)" fill="url(#Gradient2)" d="M 1918.6 304.979 C 1917.82 289.522 1853.74 280.797 1840.24 242.595 C 1835.6 229.488 1836.96 214.592 1842.94 202.145 C 1851.99 183.306 1868.42 172.018 1887.71 165.352 C 1915.66 155.69 1942.75 160.56 1968.76 173.279 C 1972.16 174.945 1976.81 176.561 1978.1 180.335 L 1975.97 182.328 C 1963.22 182.003 1950.91 177.684 1938.51 175.087 C 1915.42 170.256 1889.7 174.314 1872.13 190.994 C 1862.49 200.142 1855.34 213.469 1854.98 226.951 C 1854.69 237.411 1859.1 246.178 1866.22 253.632 C 1884.29 272.555 1913.19 276.149 1928.47 290.628 C 1931.54 293.535 1933.04 296.635 1934.35 300.596 L 1933.85 303.948 L 1933.13 301.872 C 1929.73 300.226 1926.16 300.671 1922.69 301.854 C 1920.86 302.477 1919.71 303.393 1918.6 304.979 z"/>
<path transform="translate(0,0)" fill="rgb(254,253,248)" d="M 1659.58 263.007 C 1661.38 258.966 1661.5 252.772 1662.29 248.319 C 1664.99 233.136 1669.56 219.468 1678 206.433 A 100.575 100.575 0 0 1 1741.28 163.469 C 1762.4 158.98 1790.87 161.972 1809.21 174.205 C 1811.42 175.674 1812.67 176.79 1813.17 179.405 L 1810.57 181.953 C 1799.11 182.592 1787.07 178.471 1775.78 176.775 C 1748.44 172.671 1719.55 182.519 1701.1 203.152 A 75.4356 75.4356 0 0 0 1690.34 218.457 C 1687.52 223.767 1679.38 246.754 1676.66 249.01 C 1678.79 255.726 1675.86 271.891 1675.73 279.537 A 114.537 114.537 0 0 0 1678.43 307.261 C 1681.57 320.892 1688.08 331.208 1695.43 342.919 C 1697.8 346.686 1701.45 351.19 1702.5 355.502 C 1701.88 356.377 1701.29 357.319 1700.55 358.097 C 1676.74 337.203 1664.61 320.468 1661.1 287.796 C 1660.26 279.926 1661.64 270.798 1659.64 263.243 L 1659.58 263.007 z"/>
<path transform="translate(0,0)" fill="url(#Gradient3)" d="M 1502.94 357.146 C 1493.29 349.447 1484.72 341.22 1478.29 330.571 C 1461.71 303.118 1459 263.863 1466.61 233.215 C 1472.51 209.484 1486.19 188.54 1507.36 175.834 C 1526.62 164.273 1550.45 160.173 1572.33 165.647 C 1594.17 171.112 1614.09 186.377 1625.56 205.709 C 1627.6 209.155 1631.77 216.017 1630.75 219.993 L 1630.27 221.789 C 1625.82 220.536 1615.8 206.409 1611.05 202.038 C 1586.57 179.482 1547.79 170.07 1517.57 187.095 C 1498.67 197.744 1486.13 217.311 1480.47 237.855 C 1471.76 269.471 1475.34 306.598 1491.64 335.177 C 1494.01 339.332 1504.53 352.088 1504.07 355.616 L 1502.94 357.146 z"/>
<path transform="translate(0,0)" fill="url(#Gradient4)" d="M 1232.35 89.078 C 1264.43 84.2277 1297.44 78.3546 1329.95 81.7313 C 1360.72 84.9274 1388.84 98.8132 1408.46 123.043 C 1413.1 128.772 1428.11 146.912 1427.26 154.856 L 1427.29 157.474 L 1425.87 158.241 C 1418.98 155.092 1407.05 138.05 1400.92 131.678 C 1358.51 87.6078 1307.29 93.0875 1251.62 99.8533 C 1252.39 101.289 1252.84 102.643 1252.86 104.273 C 1253.05 120.097 1252.05 136.11 1251.65 151.941 L 1247.7 273.601 C 1247.16 289.84 1247.09 349.043 1243.62 360.715 C 1242.32 365.067 1237.43 369.66 1233.43 371.614 L 1233.02 371.812 L 1231.51 371.785 C 1229.78 370.535 1229.88 369.091 1229.82 367.01 C 1229.37 348.604 1231.51 329.298 1232.07 310.785 C 1232.85 285 1237.5 97.6168 1232.35 89.078 z"/>
<path transform="translate(0,0)" fill="rgb(254,230,5)" d="M 1933.85 303.948 L 1934.35 300.596 C 1933.04 296.635 1931.54 293.535 1928.47 290.628 C 1913.19 276.149 1884.29 272.555 1866.22 253.632 C 1859.1 246.178 1854.69 237.411 1854.98 226.951 C 1855.34 213.469 1862.49 200.142 1872.13 190.994 C 1889.7 174.314 1915.42 170.256 1938.51 175.087 C 1950.91 177.684 1963.22 182.003 1975.97 182.328 C 1976.73 186.139 1963.97 219.93 1960.65 224.997 C 1960.15 225.755 1959.55 226.463 1958.92 227.109 C 1950.93 218.253 1933.65 213.749 1921.98 213.189 C 1917.56 212.976 1913.4 213.659 1909.14 214.848 C 1906.01 215.81 1903.06 216.779 1901.43 219.901 C 1900.14 222.378 1899.94 225.063 1899.79 227.799 C 1901.69 228.958 1903.86 230.021 1905.07 231.953 C 1915.69 238.049 1959.59 259.505 1962.12 269.629 C 1962.14 269.739 1962.16 269.852 1962.18 269.963 C 1967.81 272.796 1972.42 282.045 1974.35 287.825 C 1979.61 303.617 1977.63 322.998 1970.2 337.784 C 1962.44 353.244 1948.6 363.659 1932.38 368.991 C 1909.73 376.434 1880.34 374.467 1858.98 363.741 C 1849.84 359.153 1842.48 351.672 1833.7 347 L 1833.77 346.345 C 1836.99 346.251 1840.42 344.865 1843.13 343.197 C 1851.67 337.945 1860.91 323.003 1863.18 313.395 C 1870.9 317.063 1877.57 322.293 1885.72 325.318 C 1897.11 329.549 1912.9 329.526 1924.01 324.345 C 1928.33 322.328 1932.4 319.292 1934.03 314.62 C 1935.24 311.144 1935.56 307.276 1933.85 303.948 z"/>
<path transform="translate(0,0)" fill="rgb(254,253,248)" d="M 1962.18 269.963 L 1961.64 271.298 C 1958.46 271.19 1951.72 265.607 1948.57 263.935 C 1937.68 258.157 1925.72 254.434 1914.85 248.611 C 1911.39 246.755 1908.05 244.577 1905.21 241.837 C 1900.69 237.465 1899.89 233.968 1899.79 227.799 C 1901.69 228.958 1903.86 230.021 1905.07 231.953 C 1915.69 238.049 1959.59 259.505 1962.12 269.629 C 1962.14 269.739 1962.16 269.852 1962.18 269.963 z"/>
<path transform="translate(0,0)" fill="rgb(254,230,5)" d="M 1676.66 249.01 C 1679.38 246.754 1687.52 223.767 1690.34 218.457 A 75.4356 75.4356 0 0 1 1701.1 203.152 C 1719.55 182.519 1748.44 172.671 1775.78 176.775 C 1787.07 178.471 1799.11 182.592 1810.57 181.953 C 1811.49 185.701 1797.8 222.272 1794.87 226.896 C 1794.53 227.432 1794.15 227.938 1793.77 228.439 C 1793.39 228.928 1793.02 229.408 1792.59 229.862 C 1788.53 224.358 1776.33 220.466 1769.95 219.492 C 1760.39 218.033 1749.74 220.278 1741.94 226.08 C 1732.03 233.458 1727.12 245.678 1725.44 257.586 C 1724.49 264.404 1724.12 272.238 1725.14 279.054 C 1725.78 283.287 1730.57 293.374 1729.5 297.054 C 1742.64 307.854 1746.02 315.375 1765.29 313.411 C 1776.1 312.31 1789.11 306.855 1796.24 298.354 C 1796.58 297.95 1796.72 297.579 1796.92 297.096 C 1799.42 299.589 1801.04 301.354 1802 304.837 L 1801.72 306.883 C 1805.94 310.081 1815.03 327.194 1815.63 332.668 C 1815.67 333.078 1815.68 333.478 1815.66 333.889 C 1817.69 336.402 1819.53 338.6 1820.54 341.729 C 1820.02 344.601 1819.82 344.717 1817.34 346.405 C 1817.05 346.597 1816.77 346.756 1816.47 346.92 C 1800.18 363.311 1773.93 372.255 1751.15 372.312 C 1732.99 372.357 1716.03 367.525 1700.55 358.097 C 1701.29 357.319 1701.88 356.377 1702.5 355.502 C 1701.45 351.19 1697.8 346.686 1695.43 342.919 C 1688.08 331.208 1681.57 320.892 1678.43 307.261 A 114.537 114.537 0 0 1 1675.73 279.537 C 1675.86 271.891 1678.79 255.726 1676.66 249.01 z"/>
<path transform="translate(0,0)" fill="rgb(254,253,248)" d="M 1729.5 297.054 C 1742.64 307.854 1746.02 315.375 1765.29 313.411 C 1776.1 312.31 1789.11 306.855 1796.24 298.354 C 1796.58 297.95 1796.72 297.579 1796.92 297.096 C 1799.42 299.589 1801.04 301.354 1802 304.837 L 1801.72 306.883 C 1801.57 307.242 1801.46 307.509 1801.2 307.809 C 1793.79 316.491 1779.29 321.913 1768.4 323.12 C 1758.16 324.254 1746.57 322.903 1738.35 316.182 C 1731.91 310.913 1730.34 305.068 1729.5 297.054 z"/>
<path transform="translate(0,0)" fill="url(#Gradient5)" d="M 1502.94 357.146 L 1504.07 355.616 C 1504.53 352.088 1494.01 339.332 1491.64 335.177 C 1475.34 306.598 1471.76 269.471 1480.47 237.855 C 1486.13 217.311 1498.67 197.744 1517.57 187.095 C 1547.79 170.07 1586.57 179.482 1611.05 202.038 C 1615.8 206.409 1625.82 220.536 1630.27 221.789 L 1630.75 219.993 C 1635.88 223.596 1638.43 236.325 1639.48 242.294 C 1644.98 273.614 1639.96 310.051 1621.34 336.452 C 1608.71 354.356 1590.7 366.332 1569.01 370.025 C 1545.5 374.027 1523.36 369.141 1502.94 357.146 z"/>
<path transform="translate(0,0)" fill="rgb(254,253,248)" d="M 1568.5 226.033 C 1571.01 224.756 1572.06 223.995 1574.93 224.914 C 1582.33 227.284 1587.49 236.953 1590.51 243.518 C 1597.57 258.876 1598.34 278.674 1592.46 294.58 C 1588.54 305.184 1581.19 313.731 1570.82 318.437 C 1562.1 322.399 1550.64 324.105 1541.48 320.682 C 1535.61 318.49 1530.99 313.972 1528.44 308.264 C 1526.53 303.986 1525.42 299.479 1524.91 294.836 C 1529.69 298.184 1531.63 304.822 1536.75 308.112 C 1542.44 311.766 1550.52 313.134 1557.11 311.69 C 1564.99 309.961 1571.18 304.306 1575.37 297.614 C 1584.04 283.777 1585.23 263.228 1581.54 247.51 C 1579.68 239.593 1575.68 230.45 1568.5 226.033 z"/>
<path transform="translate(0,0)" fill="url(#Gradient6)" d="M 1524.91 294.836 C 1525.21 293.889 1521.48 270.803 1521.84 263.759 C 1522.5 250.913 1525.55 236.473 1535.55 227.555 C 1541.05 222.643 1548.11 220.28 1555.47 220.739 C 1560.38 221.045 1565.13 222.223 1568.5 226.033 C 1575.68 230.45 1579.68 239.593 1581.54 247.51 C 1585.23 263.228 1584.04 283.777 1575.37 297.614 C 1571.18 304.306 1564.99 309.961 1557.11 311.69 C 1550.52 313.134 1542.44 311.766 1536.75 308.112 C 1531.63 304.822 1529.69 298.184 1524.91 294.836 z"/>
<path transform="translate(0,0)" fill="url(#Gradient7)" d="M 1251.62 99.8533 C 1307.29 93.0875 1358.51 87.6078 1400.92 131.678 C 1407.05 138.05 1418.98 155.092 1425.87 158.241 L 1427.29 157.474 L 1427.26 154.856 C 1434.8 160.369 1439.05 186.618 1440.4 195.252 C 1447.37 239.772 1436.4 289.327 1409.68 325.749 C 1390.41 351.998 1364.23 366.722 1332.24 371.619 C 1300.14 376.533 1265.28 374.116 1233.02 371.812 L 1233.43 371.614 C 1237.43 369.66 1242.32 365.067 1243.62 360.715 C 1247.09 349.043 1247.16 289.84 1247.7 273.601 L 1251.65 151.941 C 1252.05 136.11 1253.05 120.097 1252.86 104.273 C 1252.84 102.643 1252.39 101.289 1251.62 99.8533 z"/>
<path transform="translate(0,0)" fill="rgb(254,253,248)" d="M 1339.64 155.053 C 1343.32 152.716 1346.15 152.475 1350.4 153.455 C 1360.42 155.763 1368.89 165.67 1374.05 174.102 C 1375.38 176.279 1375.97 177.332 1376.04 179.921 C 1381.93 183.531 1385.03 196.644 1386.59 203.159 C 1393.2 230.714 1391.57 263.184 1376.32 287.818 C 1365.95 304.564 1350.33 315.532 1331.16 319.97 C 1323.79 321.677 1300.26 325.507 1293.95 322.281 C 1292.72 319.408 1293.2 316.38 1294.36 313.396 C 1294.43 313.216 1294.58 312.937 1294.67 312.781 C 1312.14 313.232 1330.66 309.939 1345.03 299.525 C 1362.14 287.128 1371.34 267.667 1374.51 247.217 C 1377.45 228.24 1376.77 199.193 1364.92 183.003 C 1364.89 182.776 1364.87 182.524 1364.81 182.3 C 1362.05 172.203 1348.63 159.721 1339.64 155.053 z"/>
<path transform="translate(0,0)" fill="rgb(254,241,169)" d="M 1339.64 155.053 C 1343.32 152.716 1346.15 152.475 1350.4 153.455 C 1360.42 155.763 1368.89 165.67 1374.05 174.102 C 1375.38 176.279 1375.97 177.332 1376.04 179.921 C 1375.96 179.877 1375.88 179.835 1375.8 179.79 C 1368.42 175.639 1365.55 165.26 1358.7 160.356 L 1356.37 161.995 C 1355.93 164.576 1356.35 165.778 1357.89 167.949 C 1360.8 172.038 1364.44 175.308 1366.19 180.147 C 1365.96 181.642 1365.91 181.873 1364.92 183.003 C 1364.89 182.776 1364.87 182.524 1364.81 182.3 C 1362.05 172.203 1348.63 159.721 1339.64 155.053 z"/>
<path transform="translate(0,0)" fill="rgb(38,1,0)" d="M 1295.22 147.821 C 1309.67 147.775 1327.1 146.607 1339.64 155.053 C 1348.63 159.721 1362.05 172.203 1364.81 182.3 C 1364.87 182.524 1364.89 182.776 1364.92 183.003 C 1376.77 199.193 1377.45 228.24 1374.51 247.217 C 1371.34 267.667 1362.14 287.128 1345.03 299.525 C 1330.66 309.939 1312.14 313.232 1294.67 312.781 C 1297.04 301.174 1295.81 262.039 1295.92 248.044 C 1296.16 216.843 1298 185.127 1296.88 153.983 C 1296.8 151.629 1296.48 149.844 1295.22 147.821 z"/>
<path transform="translate(0,0)" fill="rgb(38,1,0)" d="M 423.057 122.37 C 445.899 124.393 457.601 124.217 477.475 138.034 C 481.289 140.685 487.481 146.352 491.738 147.385 C 493.694 145.293 494.072 144.484 493.945 141.53 C 493.549 132.322 490.529 123.183 489.406 114.038 A 80.6991 80.6991 0 0 1 508.833 51.6601 C 521.972 36.8304 540.141 27.38 560.029 26.2296 A 75.1214 75.1214 0 0 1 615.226 45.3902 C 619.109 48.8651 627.186 56.8257 628.491 61.7687 C 654.698 64.315 680.582 64.9414 706.819 66.3831 C 715.073 66.8367 724.394 66.0009 732.403 67.7368 C 741.401 69.687 754.836 75.4946 760.78 82.6572 C 763.282 85.6714 765.463 89.9864 769.195 91.4772 C 771.873 90.8863 773.035 90.4495 774.575 87.9839 C 780.275 78.8562 788.7 71.526 799.523 68.9444 C 816.421 64.9143 875.745 64.2351 893.231 67.894 C 896.957 68.6735 900.793 70.7209 904.002 72.7115 C 911.856 77.5838 916.931 84.5478 918.982 93.5747 C 920.597 100.683 917.577 128.046 922.312 130.91 C 926.057 133.176 973.996 127.748 985.506 128.874 C 995.695 129.87 1019.88 148.707 1022.67 147.887 C 1024.59 147.322 1025.74 146.3 1027.18 144.949 C 1031.29 141.468 1035.81 138.709 1040.68 136.445 C 1052.34 131.025 1068.3 126.719 1080.75 131.24 C 1104.62 134.252 1141.85 140.692 1157.73 160.947 C 1164.51 169.589 1166.19 180.19 1164.87 190.887 C 1163.6 201.163 1149.56 248.733 1143.76 255.002 C 1144.29 263.559 1135.6 277.4 1132.43 285.863 A 1339.59 1339.59 0 0 0 1112.85 340.249 C 1107.94 355.138 1103.71 370.504 1098.28 385.179 C 1097.08 388.398 1095.78 392.519 1093.51 395.101 C 1094.16 402.176 1076.94 446.206 1073.25 453.673 C 1069.21 461.859 1064.48 469.876 1058.63 476.907 C 1040.8 498.325 1004.32 518.757 976.495 521.183 C 956.417 522.933 942.098 511.184 927.599 498.951 C 912.332 486.069 897.144 468.409 895.436 447.737 C 894.738 439.295 896.484 429.056 893.847 421.069 C 893.808 420.95 893.775 420.829 893.736 420.71 C 893.713 420.638 893.685 420.568 893.66 420.497 C 862.938 421.304 834.928 421.63 806.545 408.041 C 798.819 404.342 792.374 396.991 784.527 394.054 C 779.105 403.143 754.051 409.888 744.282 412.354 C 711.971 420.511 676.971 424.978 646.869 407.01 C 637.35 401.329 623.298 383.688 620.234 382.123 C 616.723 392.416 608.874 402.638 599.035 407.415 C 579.39 416.953 535.178 410.045 511.769 411.943 C 503.09 412.647 496.203 417.834 488.076 420.466 C 469.204 426.578 434.676 426.97 416 420.463 C 405.927 416.953 398.678 410.611 390.876 403.656 C 367.765 419.646 344.928 425.322 316.918 420.175 C 296.028 416.336 284.822 405.217 272.23 389.35 C 245.499 412.781 221.629 418.742 186.731 422.029 C 184.232 421.644 181.315 422.012 178.774 422.076 C 169.037 420.813 158.393 422.253 148.491 421.583 C 131.894 420.46 113.091 412.51 97.5527 406.716 C 89.1018 403.565 80.9101 399.306 72.7919 395.385 C 57.5024 388 39.121 381.192 31.5847 364.76 L 28.6819 355.798 A 69.6271 69.6271 0 0 1 28.2368 352.55 C 25.2678 325.822 47.7077 290.623 63.4953 270.767 C 64.8078 269.145 66.0867 267.491 66.9432 265.574 C 67.8835 263.469 68.106 262.138 67.2447 259.965 C 64.7849 253.758 59.4895 247.813 55.7241 242.3 C 49.7806 233.597 45.3712 225.363 41.5528 215.53 C 40.7877 213.056 40.269 210.465 39.6559 207.947 C 38.3162 198.723 37.2313 189.628 36.7393 180.317 C 37.2134 172.59 39.2719 165.061 39.6768 157.308 C 45.8893 136.418 53.1747 117.741 67.6871 101.064 C 93.8832 70.9608 128.719 57.692 167.911 54.9453 C 193.842 57.4919 222.593 54.3507 246.906 66.2308 L 248.186 66.367 C 255.24 69.4381 261.693 72.7213 268.005 77.1726 C 274.987 60.8555 280.489 49.4326 297.948 42.4711 C 324.574 31.8548 364.784 31.2964 391.299 42.6751 C 402.042 47.2854 410.865 55.0531 415.208 66.0524 C 422.011 83.2786 419.457 104.172 423.057 122.37 z"/>
<path transform="translate(0,0)" fill="rgb(43,10,5)" d="M 1027.18 144.949 C 1031.29 141.468 1035.81 138.709 1040.68 136.445 C 1052.34 131.025 1068.3 126.719 1080.75 131.24 L 1080.33 132.883 C 1075.93 133.471 1071.56 132.977 1067.15 133.324 C 1054.47 134.323 1038.72 138.843 1029.63 148.265 C 1027.72 150.249 1024.99 154.132 1022.19 153.616 C 1022.89 150.32 1028.02 148.033 1027.18 144.949 z"/>
<path transform="translate(0,0)" fill="rgb(254,253,248)" d="M 552.219 131.794 C 546.513 129.253 541.733 125.977 537.799 121.058 C 532.1 113.935 530.066 104.763 531.164 95.796 A 34.5478 34.5478 0 0 1 544.353 72.7399 C 551.779 66.9464 561.423 63.9299 570.829 65.0935 C 580.448 66.2834 589.03 71.8253 594.903 79.4458 C 597.768 83.1619 599.403 86.3324 598.77 91.0191 L 597.362 91.7665 C 588.16 84.7559 577.14 78.2332 565.067 79.7764 C 559.783 80.4519 555.236 82.9263 551.983 87.1675 C 547.152 93.466 544.725 103.348 545.789 111.174 C 546.724 118.05 551.922 125.571 552.219 131.794 z"/>
<path transform="translate(0,0)" fill="rgb(254,230,5)" d="M 552.219 131.794 C 551.922 125.571 546.724 118.05 545.789 111.174 C 544.725 103.348 547.152 93.466 551.983 87.1675 C 555.236 82.9263 559.783 80.4519 565.067 79.7764 C 577.14 78.2332 588.16 84.7559 597.362 91.7665 L 598.77 91.0191 C 601.87 94.0766 602.261 98.27 602.275 102.431 C 602.305 110.747 597.946 118.431 592.161 124.189 A 36.2824 36.2824 0 0 1 566.443 134.901 C 561.447 134.86 556.792 133.75 552.219 131.794 z"/>
<path transform="translate(0,0)" fill="rgb(254,253,248)" d="M 811.968 105.712 C 834.209 105.012 856.304 106.044 878.514 107.21 C 878.83 107.931 879.112 108.667 879.308 109.431 C 880.182 112.839 878.797 116.09 877.159 119 A 1016.53 1016.53 0 0 1 827.691 117.951 C 830.209 122.524 826.4 163.161 824.292 169.838 C 824.048 170.608 823.613 171.275 823.108 171.897 C 813.245 170.56 802.802 170.183 792.863 170.674 C 796.027 176.612 793.543 190.611 791.69 196.642 C 790.034 202.032 786.932 208.248 781.802 211.084 C 781.064 211.195 780.243 211.345 779.507 211.153 C 771.938 209.172 782.871 167.681 777.538 159.21 A 1322.35 1322.35 0 0 1 808.186 159.709 C 808.725 158.96 809.228 158.154 809.489 157.261 C 811.453 150.538 814.7 110.824 811.968 105.712 z"/>
<path transform="translate(0,0)" fill="rgb(254,253,248)" d="M 657.781 102.951 C 681.307 102.853 705.351 104.933 728.739 107.413 C 728.93 107.952 729.107 108.486 729.233 109.044 C 729.995 112.402 728.86 116.053 727.116 118.901 C 709.354 118.772 691.623 115.996 673.855 115.951 C 676.84 121.176 671.513 161.663 669.237 169.189 C 668.853 170.459 668.135 171.651 667.385 172.738 L 641.528 173.255 C 644.229 178.595 641.419 191.34 639.582 196.864 C 637.895 201.937 634.685 209.001 629.593 211.499 C 629.389 211.599 629.18 211.688 628.972 211.778 L 626.381 211.555 C 621.571 204.906 631.922 171.233 627.13 161.612 A 565.024 565.024 0 0 1 652.252 162.7 L 652.515 162.243 C 653.055 161.319 653.56 160.373 653.836 159.332 C 655.935 151.425 660.808 108.41 657.781 102.951 z"/>
<path transform="translate(0,0)" fill="rgb(254,253,248)" d="M 531.899 163.9 A 1097.38 1097.38 0 0 1 596.813 168.309 C 597.068 168.764 597.284 169.222 597.415 169.729 C 598.217 172.824 596.628 176.298 595.136 178.914 C 579.772 180.815 563.545 177.906 548.072 178.082 A 4045.42 4045.42 0 0 0 537.912 286.084 C 536.268 306.557 536.243 328.603 532.582 348.785 C 531.623 354.073 530.099 357.76 527.074 362.191 L 522.483 362.499 L 521.244 361.218 C 520.892 341.685 522.436 321.7 523.29 302.147 A 4735.4 4735.4 0 0 1 531.899 163.9 z"/>
<path transform="translate(0,0)" fill="rgb(254,253,248)" d="M 930.394 176.965 C 948.789 174.545 967.23 172.399 985.601 169.801 A 28.871 28.871 0 0 1 986.653 171.152 C 988.832 174.133 989.625 177.296 989.061 180.969 L 988.345 182.876 C 979.207 185.832 955.948 188.401 945.558 189.357 C 950.188 195.022 980.873 299.699 987.168 318.373 C 989.392 324.97 1004.45 358.289 1004.3 360.356 C 1004.29 360.433 1004.28 360.508 1004.27 360.584 C 1005.57 372.221 992.124 399.265 984.791 408.469 C 974.204 421.755 959.586 427.666 946.932 438.112 C 944.009 440.525 941.977 445.855 938.889 447.053 C 937.346 442.639 930.706 436.847 927.224 433.821 C 942.007 428.279 970.409 402.505 979.326 388.614 C 983.934 381.436 992.813 365.951 990.935 357.325 C 991.076 356.956 991.076 356.984 991.184 356.544 C 991.98 353.304 978.133 322.666 976.055 316.816 A 2893.3 2893.3 0 0 1 947.05 232.268 C 943.433 220.865 935.071 184.692 930.394 176.965 z"/>
<path transform="translate(0,0)" fill="rgb(254,253,248)" d="M 305.511 75.072 C 328.972 74.8045 352.342 74.148 375.815 74.2998 L 375.84 86.8848 C 359.277 87.0172 342.19 86.2231 325.706 87.5721 C 323.707 116.711 324.146 146.16 323.711 175.355 L 321.116 291.464 C 320.689 310.075 322.184 343.068 319.342 359.904 C 318.571 364.472 315.81 368.755 312.358 371.814 C 310.308 372.959 308.971 374.08 306.568 374.019 C 303.332 365.503 304.809 106.186 305.511 75.072 z"/>
<path transform="translate(0,0)" fill="url(#Gradient8)" d="M 102.623 283.879 C 110.624 289.795 119.306 294.979 128.115 299.588 C 144.928 308.383 170.366 317.49 189.215 311.433 C 194.816 309.634 199.383 306.029 202.075 300.749 C 203.775 297.415 204.018 293.76 202.83 290.23 C 196.375 271.056 141.323 256.833 122.719 247.555 C 103.861 238.151 89.7265 226.594 82.9107 206.021 C 76.1223 185.531 78.2846 159.984 88.0631 140.771 C 98.3998 120.461 116.504 106.602 137.979 99.6785 C 172.28 88.6202 212.612 92.8388 244.489 109.187 C 251.242 112.651 270.722 123.108 273.012 130.208 A 590.455 590.455 0 0 0 252.841 135.65 C 226.163 117.133 191.221 105.346 158.505 111.262 C 138.048 114.962 118.944 125.23 106.948 142.555 C 96.6379 157.444 93.7509 180.041 97.0225 197.737 C 100.052 214.121 110.104 226.437 123.566 235.627 C 131.556 241.082 140.172 245.382 149.068 249.141 C 167.761 257.041 208.658 267.849 212.891 290.915 C 214.407 299.18 210.948 309.031 206.279 315.777 C 200.565 324.031 191.435 327.13 181.916 328.842 C 157.344 333.262 125.62 322.356 105.375 308.808 C 96.4396 321.936 88.1996 334.868 76.5203 345.773 C 74.2756 345.443 72.1073 344.891 69.9121 344.331 C 69.6727 335.218 96.1901 293.69 102.623 283.879 z"/>
<path transform="translate(0,0)" fill="rgb(254,230,5)" d="M 548.072 178.082 C 563.545 177.906 579.772 180.815 595.136 178.914 C 596.183 180.65 596.504 182.069 596.445 184.071 C 595.303 222.927 590.96 262.267 588.212 301.096 C 587.178 315.704 586.478 348.99 583.638 360.878 C 583.386 361.931 582.78 362.999 582.184 363.894 C 563.818 363.615 545.42 362.177 527.074 362.191 C 530.099 357.76 531.623 354.073 532.582 348.785 C 536.243 328.603 536.268 306.557 537.912 286.084 A 4045.42 4045.42 0 0 1 548.072 178.082 z"/>
<path transform="translate(0,0)" fill="rgb(254,230,5)" d="M 673.855 115.951 C 691.623 115.996 709.354 118.772 727.116 118.901 C 730.412 125.259 725.749 157.273 724.653 165.861 C 736.454 166.535 748.345 166.945 760.094 168.257 C 761.071 170.682 761.579 173.394 760.605 175.926 C 760.206 176.962 759.54 178.071 758.788 178.889 C 761.246 184.286 759.582 209.054 757.535 214.571 C 757.21 215.447 756.745 216.306 756.237 217.088 A 2856.13 2856.13 0 0 0 712.285 215.087 C 714.871 219.4 713.587 227.407 713.339 232.338 C 712.469 249.608 706.947 296.84 711.536 309.779 C 713.559 315.483 717.589 319.411 723.502 320.903 C 730.581 322.688 740.618 320.749 746.923 317.18 C 747.336 316.947 747.592 316.682 747.92 316.348 C 750.299 319.975 756.107 355.433 755.058 359.684 C 755.018 359.846 754.945 359.998 754.889 360.154 C 734.351 368.434 704.322 378.928 682.269 370.019 C 680.964 369.622 679.705 369.132 678.45 368.597 C 668.227 364.238 661.157 357.055 656.744 346.826 C 645.912 321.713 651.426 266.382 652.689 238.664 C 652.997 231.883 654.872 220.234 652.4 214.112 L 651.894 213.472 C 644.7 211.913 636.359 212.182 628.972 211.778 C 629.18 211.688 629.389 211.599 629.593 211.499 C 634.685 209.001 637.895 201.937 639.582 196.864 C 641.419 191.34 644.229 178.595 641.528 173.255 L 667.385 172.738 C 668.135 171.651 668.853 170.459 669.237 169.189 C 671.513 161.663 676.84 121.176 673.855 115.951 z"/>
<path transform="translate(0,0)" fill="rgb(254,253,248)" d="M 724.653 165.861 C 736.454 166.535 748.345 166.945 760.094 168.257 C 761.071 170.682 761.579 173.394 760.605 175.926 C 760.206 176.962 759.54 178.071 758.788 178.889 C 746.261 177.367 733.392 177.602 720.756 176.172 C 723.117 173.524 723.763 169.242 724.653 165.861 z"/>
<path transform="translate(0,0)" fill="rgb(254,253,248)" d="M 652.4 214.112 C 656.321 210.831 661.197 210.885 666.083 210.335 C 672.473 220.304 656.149 318.156 668.116 347.673 C 671.37 355.699 678.054 361.293 683.17 368.089 L 682.269 370.019 C 680.964 369.622 679.705 369.132 678.45 368.597 C 668.227 364.238 661.157 357.055 656.744 346.826 C 645.912 321.713 651.426 266.382 652.689 238.664 C 652.997 231.883 654.872 220.234 652.4 214.112 z"/>
<path transform="translate(0,0)" fill="url(#Gradient9)" d="M 827.691 117.951 A 1016.53 1016.53 0 0 0 877.159 119 C 879.757 123.16 877.133 157.302 875.669 163.242 C 875.44 164.17 875.063 165.094 874.648 165.953 C 880.962 166.64 910.973 166.548 913.915 169.94 C 914.514 172.826 913.754 175.44 912.559 178.086 C 914.18 182.986 912.748 210.945 910.617 215.136 C 910.39 215.583 910.132 215.992 909.885 216.425 C 909.828 216.526 909.779 216.632 909.723 216.734 C 909.69 216.795 909.653 216.855 909.617 216.915 A 1855.57 1855.57 0 0 0 868.538 215.343 C 870.758 220.538 869.411 228.509 869.149 234.184 C 868.403 250.376 864.118 296.235 867.235 309.42 C 868.409 314.382 870.878 319.232 875.84 321.27 C 881.822 323.727 889.89 321.235 895.515 318.843 C 897.284 318.091 900.511 317.001 901.651 315.428 C 904.627 319.985 915.314 353.987 914.357 358.638 C 914.324 358.794 914.285 358.948 914.249 359.103 C 905.463 368.243 871.401 373.946 858.614 374.208 C 850.795 374.368 842.286 374.064 834.993 371.023 A 69.3593 69.3593 0 0 1 830.785 369.3 C 820.558 364.671 813.328 356.073 809.393 345.681 C 799.437 319.391 805.692 267.307 806.979 238.219 C 807.301 230.934 808.991 219.783 806.476 213.059 C 802.009 210.452 787.744 212.166 781.802 211.084 C 786.932 208.248 790.034 202.032 791.69 196.642 C 793.543 190.611 796.027 176.612 792.863 170.674 C 802.802 170.183 813.245 170.56 823.108 171.897 C 823.613 171.275 824.048 170.608 824.292 169.838 C 826.4 163.161 830.209 122.524 827.691 117.951 z"/>
<path transform="translate(0,0)" fill="rgb(254,253,248)" d="M 874.648 165.953 C 880.962 166.64 910.973 166.548 913.915 169.94 C 914.514 172.826 913.754 175.44 912.559 178.086 L 912.126 178.427 C 905.71 179.409 879.017 178.169 873.891 175.535 C 874.212 172.34 874.492 169.161 874.648 165.953 z"/>
<path transform="translate(0,0)" fill="rgb(254,253,248)" d="M 806.476 213.059 C 808.908 210.157 810.245 209.66 814.03 209.326 C 816.096 209.144 818.189 209.113 820.262 209.071 C 826.773 218.882 810.639 319.049 820.841 347.034 C 824.184 356.207 830.526 361.76 836.007 369.492 L 834.993 371.023 A 69.3593 69.3593 0 0 1 830.785 369.3 C 820.558 364.671 813.328 356.073 809.393 345.681 C 799.437 319.391 805.692 267.307 806.979 238.219 C 807.301 230.934 808.991 219.783 806.476 213.059 z"/>
<path transform="translate(0,0)" fill="rgb(254,230,5)" d="M 1059.76 166.681 C 1072.28 167.992 1107.74 174.7 1118.13 180.236 C 1118.3 181.155 1118.29 182.141 1118.24 183.072 C 1118.02 186.588 1116.29 188.876 1113.76 191.104 C 1114.48 193.292 1114.07 194.642 1113.39 196.733 C 1097.83 244.318 1079.76 291.257 1063.33 338.568 C 1053.8 365.997 1043.31 404.966 1030.8 429.824 C 1020.97 449.355 1000.18 460.498 981.207 469.492 C 976.693 471.631 971.724 474.485 966.99 476.024 C 966.868 476.064 966.746 476.101 966.624 476.139 C 964.489 471.116 943.558 449.939 938.889 447.053 C 941.977 445.855 944.009 440.525 946.932 438.112 C 959.586 427.666 974.204 421.755 984.791 408.469 C 992.124 399.265 1005.57 372.221 1004.27 360.584 C 1004.28 360.508 1004.29 360.433 1004.3 360.356 C 1004.45 358.289 989.392 324.97 987.168 318.373 C 980.873 299.699 950.188 195.022 945.558 189.357 C 955.948 188.401 979.207 185.832 988.345 182.876 L 989.061 180.969 C 993.276 184.83 1019.23 270.989 1022.6 282.907 C 1025.96 277.505 1060.41 170.608 1059.76 166.681 z"/>
<path transform="translate(0,0)" fill="url(#Gradient10)" d="M 1059.76 166.681 C 1072.28 167.992 1107.74 174.7 1118.13 180.236 C 1118.3 181.155 1118.29 182.141 1118.24 183.072 C 1118.02 186.588 1116.29 188.876 1113.76 191.104 C 1100.96 185.947 1084.53 184.094 1070.89 181.629 C 1071.2 183.038 1071.28 184.252 1070.91 185.656 C 1064.48 209.876 1054.59 233.769 1046.39 257.465 C 1041.8 270.728 1037.62 290.637 1030.33 302.218 C 1029.55 303.458 1028.48 304.524 1027.4 305.503 C 1029.38 300.3 1024.29 288.278 1022.6 282.907 C 1025.96 277.505 1060.41 170.608 1059.76 166.681 z"/>
<path transform="translate(0,0)" fill="rgb(254,230,5)" d="M 105.375 308.808 C 125.62 322.356 157.344 333.262 181.916 328.842 C 191.435 327.13 200.565 324.031 206.279 315.777 C 210.948 309.031 214.407 299.18 212.891 290.915 C 208.658 267.849 167.761 257.041 149.068 249.141 C 140.172 245.382 131.556 241.082 123.566 235.627 C 110.104 226.437 100.052 214.121 97.0225 197.737 C 93.7509 180.041 96.6379 157.444 106.948 142.555 C 118.944 125.23 138.048 114.962 158.505 111.262 C 191.221 105.346 226.163 117.133 252.841 135.65 A 590.455 590.455 0 0 1 273.012 130.208 C 261.642 146.224 252.269 164.237 242.194 181.128 C 221.244 166.081 193.615 151.568 166.945 155.873 C 162.486 156.593 157.944 158.214 155.186 161.996 C 152.403 165.811 151.077 171.137 151.858 175.797 A 37.1863 37.1863 0 0 0 152.536 178.918 C 171.224 210.472 250.674 208.663 272.138 259.315 C 277.846 272.787 277.992 286.758 274.607 300.778 C 267.837 325.662 253.947 347.029 231.201 360.071 C 201.219 377.262 157.028 378.121 124.37 369.204 C 107.098 364.488 91.0274 356.193 76.5203 345.773 C 88.1996 334.868 96.4396 321.936 105.375 308.808 z"/>
<path transform="translate(0,0)" fill="url(#Gradient11)" d="M 143.119 190.407 C 146.786 186.911 149.61 183.02 152.536 178.918 C 171.224 210.472 250.674 208.663 272.138 259.315 C 277.846 272.787 277.992 286.758 274.607 300.778 C 271.565 297.261 265.026 294.225 260.974 291.685 C 259.829 283.059 258.39 274.837 254.766 266.823 C 242.829 240.424 209.399 231.484 184.392 222.107 C 166.037 215.223 151.707 209.302 143.119 190.407 z"/>
<path transform="translate(0,0)" fill="url(#Gradient12)" d="M 375.84 86.8848 C 375.866 100.769 374.225 167.898 376.757 175.506 C 395.174 166.653 415.458 160.653 435.697 167.657 C 447.242 171.653 456.321 179.449 463.769 188.922 C 466.336 192.393 469.162 195.85 470.768 199.892 C 475.019 206.523 477.594 213.641 479.693 221.188 C 490.158 258.525 486.947 334.295 486.918 374.76 C 475.786 374.553 434.916 371.586 427.022 374.521 C 425.698 374.484 424.386 374.155 423.089 373.9 C 422.767 373.291 422.09 372.327 421.921 371.688 C 420.931 367.954 422.291 351.903 422.334 347.126 C 422.601 317.804 423.999 287.58 421.7 258.332 C 420.71 245.741 418.267 232.671 408.258 224.1 C 401.583 222.955 395.111 222.469 389.295 226.595 C 382.303 231.555 380.177 239.886 378.884 247.914 C 376.483 262.815 376.891 278.979 376.439 294.054 L 374.265 372.553 A 5897.34 5897.34 0 0 1 312.358 371.814 C 315.81 368.755 318.571 364.472 319.342 359.904 C 322.184 343.068 320.689 310.075 321.116 291.464 L 323.711 175.355 C 324.146 146.16 323.707 116.711 325.706 87.5721 C 342.19 86.2231 359.277 87.0172 375.84 86.8848 z"/>
<path transform="translate(0,0)" fill="rgb(254,241,169)" d="M 470.768 199.892 C 475.019 206.523 477.594 213.641 479.693 221.188 L 477.403 221.381 C 471.212 219.547 465.215 209.147 461.537 204.147 C 465.054 204.188 466.834 205.028 469.719 206.914 C 471.372 204.97 470.837 202.379 470.768 199.892 z"/>
<path transform="translate(0,0)" fill="rgb(255,253,214)" d="M 463.769 188.922 C 466.336 192.393 469.162 195.85 470.768 199.892 C 470.837 202.379 471.372 204.97 469.719 206.914 C 466.834 205.028 465.054 204.188 461.537 204.147 C 458.271 199.942 454.468 196.13 450.824 192.253 C 453.116 193.026 455.788 193.151 458.182 192.788 C 461.038 192.354 462.167 191.084 463.769 188.922 z"/>
<path transform="translate(0,0)" fill="rgb(254,253,248)" d="M 408.258 224.1 C 411.316 223.316 413.404 222.425 416.428 224.192 C 423.895 228.555 427.429 240.191 429.233 248.126 C 432.768 263.678 435.334 361.94 428.53 372.503 C 428.08 373.201 427.597 373.92 427.022 374.521 C 425.698 374.484 424.386 374.155 423.089 373.9 C 422.767 373.291 422.09 372.327 421.921 371.688 C 420.931 367.954 422.291 351.903 422.334 347.126 C 422.601 317.804 423.999 287.58 421.7 258.332 C 420.71 245.741 418.267 232.671 408.258 224.1 z"/>
<path transform="translate(0,0)" fill="rgb(254,253,248)" d="M 376.757 175.506 C 395.174 166.653 415.458 160.653 435.697 167.657 C 447.242 171.653 456.321 179.449 463.769 188.922 C 462.167 191.084 461.038 192.354 458.182 192.788 C 455.788 193.151 453.116 193.026 450.824 192.253 C 434.057 179.245 408.949 176.608 390.97 189.002 C 386.349 192.187 381.446 200.288 375.972 200.922 C 372.971 197.245 377.366 181.336 376.757 175.506 z"/>
</svg>